<?xml version="1.0" encoding="UTF-8"?>
<svg version="1.1" xmlns="http://www.w3.org/2000/svg" width="1138" height="378">
<path d="M0 0 C375.54 0 751.08 0 1138 0 C1138 124.74 1138 249.48 1138 378 C762.46 378 386.92 378 0 378 C0 253.26 0 128.52 0 0 Z " fill="#251B51" transform="translate(0,0)"/>
<path d="M0 0 C1.70116974 -0.01268921 1.70116974 -0.01268921 3.43670654 -0.02563477 C5.28912712 -0.01652573 5.28912712 -0.01652573 7.17897034 -0.00723267 C9.14070694 -0.0151181 9.14070694 -0.0151181 11.14207458 -0.02316284 C14.72273079 -0.03682119 18.30312721 -0.0315437 21.88378787 -0.02202559 C25.6352703 -0.01441967 29.38673079 -0.02147733 33.13821411 -0.02618408 C39.43878666 -0.0316396 45.73925366 -0.02445612 52.03981018 -0.01016235 C59.31700623 0.00615675 66.59395002 0.00088033 73.87113994 -0.01564157 C80.1252325 -0.02927074 86.37924925 -0.03116891 92.63335186 -0.02332556 C96.36593544 -0.01865598 100.09840059 -0.0180043 103.83097649 -0.02793503 C107.9940005 -0.03823751 112.15659216 -0.02394397 116.31959534 -0.00723267 C117.55251816 -0.01330536 118.78544098 -0.01937805 120.0557251 -0.02563477 C126.87156365 0.02507922 131.69760545 0.38808915 137.1264801 4.88095093 C140.06825562 8.59687789 139.48275771 13.12587007 139.5068512 17.61264038 C139.51502869 18.45200134 139.52320618 19.2913623 139.53163147 20.15615845 C139.55645602 22.93550913 139.57299323 25.71480886 139.5874176 28.49423218 C139.59274128 29.44382498 139.59806496 30.39341778 139.60354996 31.37178612 C139.63026772 36.3972124 139.64964773 41.42261394 139.66407776 46.4480896 C139.67742326 50.60651617 139.70528906 54.76445278 139.74610901 58.92269897 C139.79540821 63.94475986 139.82019534 68.9663759 139.82730484 73.98866844 C139.83401927 75.90123538 139.84924632 77.81379232 139.87319565 79.72622108 C139.90483062 82.40503274 139.90488685 85.08212831 139.8974762 87.76107788 C139.91388153 88.54830734 139.93028687 89.3355368 139.94718933 90.1466217 C139.88232382 95.88533494 138.41672253 98.36246737 134.3139801 102.38095093 C129.72388771 105.23896226 124.23012854 104.73176673 118.98194885 104.79501343 C117.99020157 104.81437958 116.99845428 104.83374573 115.97665405 104.85369873 C112.81834941 104.91333546 109.660008 104.95981648 106.5014801 105.00595093 C104.35628218 105.04414532 102.21109935 105.08319791 100.06593323 105.12313843 C94.81541648 105.21902385 89.56480834 105.30411771 84.3139801 105.38095093 C84.87987854 106.33356812 85.44577698 107.2861853 86.02882385 108.26766968 C86.77008291 109.53437819 87.5109476 110.80131753 88.2514801 112.06845093 C88.81125549 113.00721069 88.81125549 113.00721069 89.38233948 113.9649353 C91.35560006 117.36036568 93.0898886 120.36899024 93.3139801 124.38095093 C90.68983255 127.00509848 89.54416948 126.63393189 85.88624573 126.63973999 C84.75166931 126.64604431 83.6170929 126.65234863 82.44813538 126.65884399 C80.60282227 126.6527713 80.60282227 126.6527713 78.7202301 126.64657593 C77.46262878 126.64848938 76.20502747 126.65040283 74.90931702 126.65237427 C72.24605135 126.65373742 69.5831508 126.65103099 66.91993713 126.64169312 C63.50326616 126.63029845 60.08690938 126.6368584 56.67024994 126.64883804 C53.41606531 126.65779546 50.16191883 126.65152721 46.9077301 126.64657593 C45.67752136 126.65062439 44.44731262 126.65467285 43.17982483 126.65884399 C41.47796021 126.64938751 41.47796021 126.64938751 39.74171448 126.63973999 C38.73958923 126.6381488 37.73746399 126.63655762 36.70497131 126.63491821 C34.3139801 126.38095093 34.3139801 126.38095093 32.3139801 124.38095093 C32.52448523 118.83312233 34.36543024 114.9730268 37.3764801 110.44345093 C37.75353088 109.8549939 38.13058167 109.26653687 38.51905823 108.6602478 C39.43976887 107.22673629 40.37535004 105.80279373 41.3139801 104.38095093 C40.72595612 104.39205399 40.13793213 104.40315704 39.53208923 104.41459656 C33.40013348 104.52539721 27.26846305 104.6007038 21.13575745 104.65560913 C18.84853053 104.68072035 16.5613836 104.71481608 14.27442932 104.75814819 C10.98272445 104.81894674 7.6920824 104.84719532 4.3999176 104.86923218 C2.87145706 104.90794182 2.87145706 104.90794182 1.31211853 104.94743347 C-6.63812707 104.95055926 -6.63812707 104.95055926 -10.25389099 102.16293335 C-14.65481289 97.12895372 -14.98422889 92.60972954 -14.97654724 86.10580444 C-14.98326447 85.28565857 -14.98998169 84.4655127 -14.99690247 83.62051392 C-15.01585713 80.91689959 -15.01980514 78.21353376 -15.0219574 75.50985718 C-15.02838627 73.6256551 -15.0351147 71.74145402 -15.04212952 69.85725403 C-15.05409535 65.91062098 -15.05781097 61.96407544 -15.05662537 58.01742554 C-15.05642203 52.9655687 -15.08374231 47.91427348 -15.11816978 42.86254978 C-15.14042754 38.97200452 -15.14446328 35.08159477 -15.14340591 31.19099236 C-15.14576286 29.32869465 -15.1545917 27.46639327 -15.17007065 25.6041584 C-15.18971132 22.99753777 -15.18390091 20.39213299 -15.17185974 17.78549194 C-15.18309875 17.02010605 -15.19433777 16.25472015 -15.20591736 15.46614075 C-15.14520453 10.28266487 -14.05447745 7.31041268 -10.6860199 3.38095093 C-7.01381176 0.74377822 -4.49694328 0.00517364 0 0 Z " fill="#251D52" transform="translate(164.68601989746094,99.61904907226563)"/>
<path d="M0 0 C18.19125 -0.0928125 18.19125 -0.0928125 36.75 -0.1875 C40.5562793 -0.21481201 44.36255859 -0.24212402 48.28417969 -0.27026367 C52.99072266 -0.28381348 52.99072266 -0.28381348 55.2053833 -0.28633118 C56.72738286 -0.290889 58.2493727 -0.3013366 59.77130127 -0.31672668 C75.6350516 -0.46889769 91.11097618 1.38118126 103 13 C114.45736908 25.87113184 115.90390985 39.51836415 115 56 C113.67495147 65.81022165 107.76957065 75.64144275 99.9609375 81.71875 C94.86403485 85.04899715 90.16963218 88 84 88 C86.51842425 92.31391151 89.039862 96.62605195 91.5625 100.9375 C91.94082977 101.5844986 92.31915955 102.23149719 92.70895386 102.89810181 C96.92078019 110.09793322 101.15222752 117.28421433 105.46875 124.421875 C105.99226295 125.2884951 105.99226295 125.2884951 106.52635193 126.17262268 C108.18727689 128.92024127 109.85376994 131.66426499 111.52758789 134.40405273 C112.11789795 135.37802002 112.70820801 136.3519873 113.31640625 137.35546875 C113.83662354 138.20778076 114.35684082 139.06009277 114.89282227 139.93823242 C116 142 116 142 116 144 C103.13 144 90.26 144 77 144 C74.56625 139.58625 72.1325 135.1725 69.625 130.625 C67.89325577 127.53184581 67.89325577 127.53184581 66.16075134 124.43911743 C63.34441903 119.39896704 60.64478563 114.38799909 58.30859375 109.1015625 C57.91913574 108.2667334 57.52967773 107.4319043 57.12841797 106.57177734 C56.0625 104.25 56.0625 104.25 55.23876953 102.01806641 C54.2379124 99.59457201 54.2379124 99.59457201 51 97 C45.39 96.67 39.78 96.34 34 96 C34 111.51 34 127.02 34 143 C22.78 143 11.56 143 0 143 C0 95.81 0 48.62 0 0 Z " fill="#08EAB6" transform="translate(862,107)"/>
<path d="M0 0 C35.64 0 71.28 0 108 0 C108 30.83859309 108 30.83859309 101.10546875 37.8984375 C100.35402588 38.61918457 100.35402588 38.61918457 99.58740234 39.35449219 C96.40531017 42.65306206 93.85607266 46.47227602 91.1875 50.1875 C89.9842361 51.82767688 88.77980375 53.4669972 87.57421875 55.10546875 C83.65730604 60.45960584 79.77592217 65.83905485 75.8996582 71.22265625 C70.87732836 78.19012067 65.78410912 85.10427366 60.6796875 92.01171875 C55.77241683 98.66414407 50.88854513 105.33380209 46 112 C66.79 112.33 87.58 112.66 109 113 C109 123.23 109 133.46 109 144 C73.03 144 37.06 144 0 144 C0 111.10314351 0 111.10314351 12.11914062 98.07177734 C15.00027506 94.89819131 17.47947431 91.46132755 20 88 C20.97989427 86.69260183 21.961686 85.38662378 22.9453125 84.08203125 C28.07331371 77.24414025 33.12462724 70.34939559 38.18701172 63.46289062 C40.03924259 60.94669011 41.89595039 58.4338506 43.75390625 55.921875 C44.37088379 55.08696533 44.98786133 54.25205566 45.62353516 53.3918457 C46.7876427 51.8167753 47.95260696 50.24233751 49.11865234 48.66870117 C53.17732768 43.17250221 57.07835153 37.60235495 61 32 C30.805 31.505 30.805 31.505 0 31 C0 20.77 0 10.54 0 0 Z " fill="#08E8B5" transform="translate(537,107)"/>
<path d="M0 0 C1.60279192 0.00015914 3.20558896 0.00585476 4.80834961 0.01586914 C5.65038437 0.01728409 6.49241913 0.01869904 7.35997009 0.02015686 C10.06024671 0.02577276 12.76044163 0.03832791 15.46069336 0.05102539 C17.28686404 0.05603834 19.11303602 0.06060161 20.93920898 0.06469727 C25.42556878 0.07574735 29.9118672 0.0930226 34.39819336 0.11352539 C37.14748865 5.4400751 39.52890193 10.74623599 41.62084961 16.35961914 C42.06713966 17.54009323 42.06713966 17.54009323 42.52244568 18.74441528 C43.16686223 20.44972757 43.8094681 22.15572499 44.45043945 23.86233521 C46.21620607 28.56174725 47.99737464 33.25532316 49.77709961 37.94946289 C50.15158234 38.93803787 50.52606506 39.92661285 50.91189575 40.94514465 C55.18425454 52.21062892 59.53784907 63.44436768 63.89819336 74.67602539 C64.69425703 76.72884019 65.49031824 78.78165594 66.28637695 80.83447266 C70.22119679 90.97437505 74.17664509 101.10583667 78.15991211 111.22680664 C78.91390393 113.14596248 79.66781205 115.0651512 80.42163086 116.984375 C81.83387069 120.57993099 83.25275118 124.17276629 84.67553711 127.76416016 C85.30599687 129.36749556 85.93621954 130.97092422 86.56616211 132.57446289 C86.85577316 133.30010941 87.14538422 134.02575592 87.44377136 134.77339172 C88.59152277 137.70912487 89.39819336 139.93077047 89.39819336 143.11352539 C76.85819336 143.11352539 64.31819336 143.11352539 51.39819336 143.11352539 C43.29128908 121.37762262 35.64545922 99.50600859 28.12548828 77.56054688 C24.04870218 65.6787303 19.92131273 53.83368322 15.39819336 42.11352539 C14.97223877 43.34651367 14.54628418 44.57950195 14.10742188 45.84985352 C5.8019412 69.88160164 -2.55075917 93.89575325 -11.03930664 117.86352539 C-11.5912117 119.4233313 -11.5912117 119.4233313 -12.15426636 121.01464844 C-13.19666626 123.95953271 -14.24066684 126.9038433 -15.28540039 129.84790039 C-15.59300293 130.71658752 -15.90060547 131.58527466 -16.2175293 132.48028564 C-16.50345947 133.28447937 -16.78938965 134.0886731 -17.08398438 134.91723633 C-17.33027084 135.61105408 -17.57655731 136.30487183 -17.83030701 137.01971436 C-18.70803272 139.40181761 -19.65897025 141.75643441 -20.60180664 144.11352539 C-33.14180664 144.11352539 -45.68180664 144.11352539 -58.60180664 144.11352539 C-57.89111349 139.8493665 -57.28094559 136.86018493 -55.77026367 132.97753906 C-55.20060883 131.50091545 -55.20060883 131.50091545 -54.6194458 129.99446106 C-54.203703 128.93418198 -53.78796021 127.87390289 -53.35961914 126.78149414 C-52.70651764 125.09566475 -52.70651764 125.09566475 -52.04022217 123.3757782 C-50.85458004 120.31844584 -49.66390401 117.26313377 -48.47097015 114.20864105 C-47.22017211 111.00230011 -45.97598679 107.79339557 -44.73120117 104.5847168 C-42.68809647 99.32041514 -40.64141596 94.05751797 -38.59204102 88.7956543 C-35.83272519 81.71045046 -33.08254385 74.62172993 -30.33618164 67.53149414 C-27.55252388 60.34522164 -24.76734412 53.15955035 -21.97808838 45.97544861 C-18.90472158 38.05931814 -15.83855156 30.14054327 -12.78930664 22.21508789 C-12.21659109 20.72825671 -11.64383863 19.24143975 -11.07104492 17.75463867 C-10.04052085 15.07961676 -9.01328091 12.40336772 -7.98803711 9.72631836 C-7.32892334 8.01532959 -7.32892334 8.01532959 -6.65649414 6.26977539 C-6.27992676 5.2881543 -5.90335938 4.3065332 -5.51538086 3.29516602 C-4.0444866 -0.21737035 -4.14177023 0.13054451 0 0 Z " fill="#08E9B6" transform="translate(738.601806640625,106.886474609375)"/>
<path d="M0 0 C4.04931785 3.93620841 7.76031166 8.09139814 11.4375 12.375 C11.98470703 13.00921875 12.53191406 13.6434375 13.09570312 14.296875 C14.193999 15.57063826 15.28448212 16.85118093 16.36694336 18.13842773 C17.96574525 20.01717728 17.96574525 20.01717728 19.74438477 21.66040039 C23.13706474 25.02516938 24.37145543 27.23261257 24.41015625 32.07421875 C24.31608413 33.94653595 24.19936789 35.81782398 24.0625 37.6875 C23.74649943 46.5406244 24.19733966 53.28405078 29 61 C29.76183594 62.23943359 29.76183594 62.23943359 30.5390625 63.50390625 C34.66220889 69.43459311 39.58608139 72.81853322 46 76 C46.63550781 76.3403125 47.27101563 76.680625 47.92578125 77.03125 C56.35884877 80.93176945 67.41595435 80.00441598 76 77 C83.53099927 73.99974706 91.23582453 69.52835093 95 62 C99.49334213 62.56532923 102.99446384 63.7344024 107.0546875 65.72265625 C108.16328125 66.26083984 109.271875 66.79902344 110.4140625 67.35351562 C111.55617188 67.91748047 112.69828125 68.48144531 113.875 69.0625 C115.0403125 69.63033203 116.205625 70.19816406 117.40625 70.78320312 C120.2742724 72.18195175 123.13861866 73.58772888 126 75 C126 80.59097907 123.45318372 82.81162233 120 87 C119.14728516 88.09054688 119.14728516 88.09054688 118.27734375 89.203125 C107.31616216 102.51479351 90.08635007 111.88185743 73 114 C49.89399859 115.57285585 29.77987075 110.34891863 12 95 C-1.61793809 81.86450094 -10.58490845 64.80825513 -11.37109375 45.7421875 C-11.66987734 28.89079323 -10.50058204 15.39703586 -1 1 C-0.67 0.67 -0.34 0.34 0 0 Z " fill="#0FE5D4" transform="translate(376,139)"/>
<path d="M0 0 C1.70116974 -0.01268921 1.70116974 -0.01268921 3.43670654 -0.02563477 C5.28912712 -0.01652573 5.28912712 -0.01652573 7.17897034 -0.00723267 C9.14070694 -0.0151181 9.14070694 -0.0151181 11.14207458 -0.02316284 C14.72273079 -0.03682119 18.30312721 -0.0315437 21.88378787 -0.02202559 C25.6352703 -0.01441967 29.38673079 -0.02147733 33.13821411 -0.02618408 C39.43878666 -0.0316396 45.73925366 -0.02445612 52.03981018 -0.01016235 C59.31700623 0.00615675 66.59395002 0.00088033 73.87113994 -0.01564157 C80.1252325 -0.02927074 86.37924925 -0.03116891 92.63335186 -0.02332556 C96.36593544 -0.01865598 100.09840059 -0.0180043 103.83097649 -0.02793503 C107.9940005 -0.03823751 112.15659216 -0.02394397 116.31959534 -0.00723267 C117.55251816 -0.01330536 118.78544098 -0.01937805 120.0557251 -0.02563477 C126.87156365 0.02507922 131.69760545 0.38808915 137.1264801 4.88095093 C140.06825562 8.59687789 139.48275771 13.12587007 139.5068512 17.61264038 C139.51502869 18.45200134 139.52320618 19.2913623 139.53163147 20.15615845 C139.55645602 22.93550913 139.57299323 25.71480886 139.5874176 28.49423218 C139.59274128 29.44382498 139.59806496 30.39341778 139.60354996 31.37178612 C139.63026772 36.3972124 139.64964773 41.42261394 139.66407776 46.4480896 C139.67742326 50.60651617 139.70528906 54.76445278 139.74610901 58.92269897 C139.79540821 63.94475986 139.82019534 68.9663759 139.82730484 73.98866844 C139.83401927 75.90123538 139.84924632 77.81379232 139.87319565 79.72622108 C139.90483062 82.40503274 139.90488685 85.08212831 139.8974762 87.76107788 C139.91388153 88.54830734 139.93028687 89.3355368 139.94718933 90.1466217 C139.88232382 95.88533494 138.41672253 98.36246737 134.3139801 102.38095093 C129.72388771 105.23896226 124.23012854 104.73176673 118.98194885 104.79501343 C117.99020157 104.81437958 116.99845428 104.83374573 115.97665405 104.85369873 C112.81834941 104.91333546 109.660008 104.95981648 106.5014801 105.00595093 C104.35628218 105.04414532 102.21109935 105.08319791 100.06593323 105.12313843 C94.81541648 105.21902385 89.56480834 105.30411771 84.3139801 105.38095093 C84.87987854 106.33356812 85.44577698 107.2861853 86.02882385 108.26766968 C86.77008291 109.53437819 87.5109476 110.80131753 88.2514801 112.06845093 C88.81125549 113.00721069 88.81125549 113.00721069 89.38233948 113.9649353 C91.35560006 117.36036568 93.0898886 120.36899024 93.3139801 124.38095093 C90.68983255 127.00509848 89.54416948 126.63393189 85.88624573 126.63973999 C84.75166931 126.64604431 83.6170929 126.65234863 82.44813538 126.65884399 C80.60282227 126.6527713 80.60282227 126.6527713 78.7202301 126.64657593 C77.46262878 126.64848938 76.20502747 126.65040283 74.90931702 126.65237427 C72.24605135 126.65373742 69.5831508 126.65103099 66.91993713 126.64169312 C63.50326616 126.63029845 60.08690938 126.6368584 56.67024994 126.64883804 C53.41606531 126.65779546 50.16191883 126.65152721 46.9077301 126.64657593 C45.67752136 126.65062439 44.44731262 126.65467285 43.17982483 126.65884399 C41.47796021 126.64938751 41.47796021 126.64938751 39.74171448 126.63973999 C38.73958923 126.6381488 37.73746399 126.63655762 36.70497131 126.63491821 C34.3139801 126.38095093 34.3139801 126.38095093 32.3139801 124.38095093 C32.52448523 118.83312233 34.36543024 114.9730268 37.3764801 110.44345093 C37.75353088 109.8549939 38.13058167 109.26653687 38.51905823 108.6602478 C39.43976887 107.22673629 40.37535004 105.80279373 41.3139801 104.38095093 C40.72595612 104.39205399 40.13793213 104.40315704 39.53208923 104.41459656 C33.40013348 104.52539721 27.26846305 104.6007038 21.13575745 104.65560913 C18.84853053 104.68072035 16.5613836 104.71481608 14.27442932 104.75814819 C10.98272445 104.81894674 7.6920824 104.84719532 4.3999176 104.86923218 C2.87145706 104.90794182 2.87145706 104.90794182 1.31211853 104.94743347 C-6.63812707 104.95055926 -6.63812707 104.95055926 -10.25389099 102.16293335 C-14.65481289 97.12895372 -14.98422889 92.60972954 -14.97654724 86.10580444 C-14.98326447 85.28565857 -14.98998169 84.4655127 -14.99690247 83.62051392 C-15.01585713 80.91689959 -15.01980514 78.21353376 -15.0219574 75.50985718 C-15.02838627 73.6256551 -15.0351147 71.74145402 -15.04212952 69.85725403 C-15.05409535 65.91062098 -15.05781097 61.96407544 -15.05662537 58.01742554 C-15.05642203 52.9655687 -15.08374231 47.91427348 -15.11816978 42.86254978 C-15.14042754 38.97200452 -15.14446328 35.08159477 -15.14340591 31.19099236 C-15.14576286 29.32869465 -15.1545917 27.46639327 -15.17007065 25.6041584 C-15.18971132 22.99753777 -15.18390091 20.39213299 -15.17185974 17.78549194 C-15.18309875 17.02010605 -15.19433777 16.25472015 -15.20591736 15.46614075 C-15.14520453 10.28266487 -14.05447745 7.31041268 -10.6860199 3.38095093 C-7.01381176 0.74377822 -4.49694328 0.00517364 0 0 Z M-6.50144386 8.68416405 C-8.53099745 11.5912969 -8.10117726 14.96482452 -8.07420349 18.38485718 C-8.07946045 19.19977631 -8.08471741 20.01469543 -8.09013367 20.85430908 C-8.10334891 23.55088406 -8.09459033 26.24686983 -8.0844574 28.94345093 C-8.0864777 30.81527825 -8.08938877 32.68710482 -8.09315491 34.55892944 C-8.09758032 38.48307789 -8.09114022 42.40702158 -8.07713318 46.33114624 C-8.06004117 51.3653544 -8.06988119 56.39908277 -8.08785057 61.43327332 C-8.09868254 65.29883449 -8.09524477 69.16428161 -8.08746719 73.02984619 C-8.08546356 74.88623104 -8.08793017 76.7426262 -8.09490585 78.59899902 C-8.10251071 81.19196062 -8.09093004 83.78414136 -8.07420349 86.37704468 C-8.08027618 87.14700775 -8.08634888 87.91697083 -8.09260559 88.71026611 C-8.1017104 92.61956155 -8.1017104 92.61956155 -6.50144386 96.07773781 C-4.00663417 97.8686521 -2.31706181 97.75837693 0.74171448 97.76190186 C2.43264221 97.77459106 2.43264221 97.77459106 4.1577301 97.78753662 C5.3952301 97.78146393 6.6327301 97.77539124 7.9077301 97.76913452 C9.86162659 97.77701996 9.86162659 97.77701996 11.85499573 97.7850647 C15.42937063 97.79875444 19.00348609 97.79343297 22.5778656 97.78392744 C26.31608283 97.77633936 30.05427764 97.78337408 33.79249573 97.78808594 C40.07053115 97.79354599 46.34846074 97.78634539 52.6264801 97.77206421 C59.88778921 97.75573714 67.14884564 97.76102548 74.41014862 97.77754343 C80.64122432 97.79115124 86.87222388 97.79308143 93.10330963 97.78522742 C96.82632592 97.78054699 100.54922337 97.7799361 104.27223206 97.78983688 C108.42171733 97.80010074 112.57076602 97.78588072 116.7202301 97.76913452 C118.5764801 97.77824356 118.5764801 97.77824356 120.4702301 97.78753662 C121.59751526 97.77907715 122.72480042 97.77061768 123.88624573 97.76190186 C124.86774597 97.76077078 125.84924622 97.7596397 126.86048889 97.75847435 C129.34601112 97.56557485 129.34601112 97.56557485 131.12940407 96.07773781 C133.15895766 93.17060496 132.72913747 89.79707734 132.7021637 86.37704468 C132.70742065 85.56212555 132.71267761 84.74720642 132.71809387 83.90759277 C132.73130911 81.21101779 132.72255054 78.51503203 132.7124176 75.81845093 C132.7144379 73.9466236 132.71734897 72.07479704 132.72111511 70.20297241 C132.72554053 66.27882396 132.71910042 62.35488028 132.70509338 58.43075562 C132.68800137 53.39654746 132.69784139 48.36281909 132.71581078 43.32862854 C132.72664274 39.46306736 132.72320497 35.59762025 132.7154274 31.73205566 C132.71342377 29.87567081 132.71589037 28.01927566 132.72286606 26.16290283 C132.73047092 23.56994123 132.71889024 20.9777605 132.7021637 18.38485718 C132.71127274 17.22991257 132.71127274 17.22991257 132.7205658 16.05163574 C132.72967061 12.14234031 132.72967061 12.14234031 131.12940407 8.68416405 C128.63459437 6.89324976 126.94502202 7.00352492 123.88624573 7 C122.75896057 6.99154053 121.63167542 6.98308105 120.4702301 6.97436523 C119.2327301 6.98043793 117.9952301 6.98651062 116.7202301 6.99276733 C115.41763245 6.98751038 114.11503479 6.98225342 112.77296448 6.97683716 C109.19858957 6.96314742 105.62447411 6.96846889 102.0500946 6.97797441 C98.31187738 6.9855625 94.57368256 6.97852778 90.83546448 6.97381592 C84.55742906 6.96835587 78.27949946 6.97555647 72.0014801 6.98983765 C64.74017099 7.00616471 57.47911457 7.00087637 50.21781158 6.98435843 C43.98673589 6.97075061 37.75573632 6.96882043 31.52465057 6.97667444 C27.80163429 6.98135486 24.07873683 6.98196576 20.35572815 6.97206497 C16.20624288 6.96180112 12.05719419 6.97602114 7.9077301 6.99276733 C6.0514801 6.98365829 6.0514801 6.98365829 4.1577301 6.97436523 C2.46680237 6.98705444 2.46680237 6.98705444 0.74171448 7 C-0.23978577 7.00113108 -1.22128601 7.00226215 -2.23252869 7.00342751 C-4.71805091 7.19632701 -4.71805091 7.19632701 -6.50144386 8.68416405 Z " fill="#1ACAE8" transform="translate(164.68601989746094,99.61904907226563)"/>
<path d="M0 0 C14.51637631 -0.18694911 29.03256579 -0.32745486 43.5498991 -0.41449738 C50.29075568 -0.45573535 57.03086399 -0.51194566 63.77124023 -0.60351562 C70.2745413 -0.69182267 76.77735662 -0.7382578 83.28122902 -0.75901794 C85.76407938 -0.77381463 88.24688655 -0.80270959 90.72940636 -0.84584045 C94.20425155 -0.90381772 97.67587302 -0.91191708 101.15112305 -0.90820312 C102.18042938 -0.93696533 103.20973572 -0.96572754 104.27023315 -0.99536133 C111.09538543 -0.91629083 111.09538543 -0.91629083 113.72286415 1.74510193 C115.01608501 3.78488381 116.03559772 5.78893059 117 8 C117.52207031 8.91007813 118.04414063 9.82015625 118.58203125 10.7578125 C122.79140757 18.85585076 122.79140757 18.85585076 122 24 C120.3268779 25.6731221 118.29359859 25.12964993 115.99586487 25.13371277 C114.91195465 25.13797775 113.82804443 25.14224274 112.71128845 25.14663696 C111.51178055 25.14618378 110.31227264 25.14573059 109.07641602 25.14526367 C107.19369995 25.15030159 107.19369995 25.15030159 105.27294922 25.15544128 C101.82050007 25.16430149 98.36807569 25.16662024 94.91561627 25.16725707 C92.03774182 25.16820453 89.15987318 25.17188094 86.28200096 25.17542917 C79.4945569 25.18358143 72.70712612 25.1860127 65.91967773 25.18530273 C58.90838099 25.18470175 51.89716114 25.19525586 44.88588387 25.2110464 C38.87483817 25.22410391 32.86381765 25.22948739 26.85275787 25.22884732 C23.25886743 25.22859181 19.66504527 25.23147249 16.0711689 25.24202538 C12.06505161 25.25346685 8.05910754 25.24897056 4.05297852 25.24291992 C2.25675301 25.25134918 2.25675301 25.25134918 0.42424011 25.25994873 C-0.66248993 25.25575424 -1.74921997 25.25155975 -2.86888123 25.24723816 C-3.81702918 25.24778293 -4.76517714 25.24832769 -5.74205685 25.24888897 C-8 25 -8 25 -10 23 C-9.80260937 17.35291162 -7.10672541 12.94840885 -4.4375 8.125 C-4.01275391 7.34125 -3.58800781 6.5575 -3.15039062 5.75 C-2.10789462 3.82899613 -1.05767555 1.9126751 0 0 Z " fill="#1ACBE9" transform="translate(171,233)"/>
<path d="M0 0 C6.58631488 5.83630258 12.89375729 12.11670704 17 20 C17 20.66 17 21.32 17 22 C13.09334136 24.02752083 9.17901554 26.03911358 5.25683594 28.03637695 C3.9238898 28.7179308 2.59313 29.40377838 1.26464844 30.09399414 C-0.64609254 31.08578009 -2.56418182 32.06182399 -4.484375 33.03515625 C-5.63647461 33.6269165 -6.78857422 34.21867676 -7.97558594 34.82836914 C-11 36 -11 36 -13.27832031 35.84936523 C-15.6346643 34.68689775 -16.7422542 32.78267487 -18.3359375 30.75390625 C-25.20974941 23.50897304 -34.8190647 19.34887068 -44.66796875 18.79296875 C-51.01796546 18.43100651 -51.01796546 18.43100651 -57 20 C-59.76171875 20.42578125 -59.76171875 20.42578125 -63 20 C-65.23533508 18.10252934 -66.9472858 16.39906257 -68.8125 14.1875 C-69.32659424 13.60307129 -69.84068848 13.01864258 -70.37036133 12.41650391 C-71.9333589 10.6269674 -73.46903214 8.81696738 -75 7 C-75.4650293 6.45649902 -75.93005859 5.91299805 -76.40917969 5.35302734 C-83.74352477 -3.23057432 -83.74352477 -3.23057432 -85 -7 C-56.50063474 -19.62886565 -25.71396213 -20.24802633 0 0 Z " fill="#0FE5D4" transform="translate(486,121)"/>
<path d="M0 0 C1.82851364 2.74277046 2.75849603 4.85732784 3.81591797 7.93945312 C4.16322968 8.94480103 4.51054138 9.95014893 4.86837769 10.98596191 C5.23923492 12.07340698 5.61009216 13.16085205 5.9921875 14.28125 C6.37939972 15.40511108 6.76661194 16.52897217 7.16555786 17.68688965 C8.40608738 21.28988235 9.64074896 24.89485224 10.875 28.5 C12.10325596 32.07617943 13.33273086 35.65193612 14.5630188 39.22741699 C15.32802743 41.4519391 16.09167954 43.67692835 16.85372925 45.90246582 C18.91524823 51.91047883 21.0416921 57.88575766 23.27468872 63.83239746 C24 66 24 66 24 68 C22.66904288 69.33570532 21.33524029 70.66857636 20 72 C18.77395231 73.77709177 17.59978312 75.59066271 16.46875 77.4296875 C15.82292969 78.47253906 15.17710937 79.51539063 14.51171875 80.58984375 C13.84785156 81.67394531 13.18398438 82.75804687 12.5 83.875 C10.00522668 87.91992374 7.50645908 91.96230623 5 96 C4.57460938 96.69125977 4.14921875 97.38251953 3.7109375 98.09472656 C2.86225782 99.43296869 1.94153343 100.72537692 1 102 C0.34 102 -0.32 102 -1 102 C-2.54741192 99.73744951 -3.97347916 97.47654688 -5.375 95.125 C-8.24351244 90.37646721 -11.16094769 85.70821612 -14.36328125 81.17578125 C-14.9164502 80.38478027 -15.46961914 79.5937793 -16.03955078 78.77880859 C-17.12021525 77.24346455 -18.21584221 75.71852047 -19.32763672 74.20556641 C-19.82150879 73.49706543 -20.31538086 72.78856445 -20.82421875 72.05859375 C-21.26854248 71.44298584 -21.71286621 70.82737793 -22.1706543 70.19311523 C-24.0519047 65.21835152 -21.66281699 59.52031483 -19.97460938 54.71337891 C-19.55747681 53.5158902 -19.14034424 52.31840149 -18.71057129 51.08462524 C-18.25518867 49.79852483 -17.79957622 48.51250576 -17.34375 47.2265625 C-16.87626802 45.89391683 -16.40927542 44.56109939 -15.94274902 43.2281189 C-14.96825006 40.44802527 -13.9894885 37.66948448 -13.00732422 34.89208984 C-11.7465626 31.32649361 -10.49411896 27.75804619 -9.24449921 24.18853188 C-8.28265927 21.44258245 -7.31774994 18.69772027 -6.35176086 15.953228 C-5.88859591 14.63689746 -5.42610041 13.32033117 -4.96427917 12.00352859 C-4.3209284 10.17140009 -3.6732697 8.34078601 -3.02539062 6.51025391 C-2.6575647 5.4676944 -2.28973877 4.42513489 -1.9107666 3.35098267 C-1 1 -1 1 0 0 Z " fill="#251E52" transform="translate(754,148)"/>
<path d="M0 0 C7.858125 -0.1546875 7.858125 -0.1546875 15.875 -0.3125 C17.50679199 -0.35802002 19.13858398 -0.40354004 20.81982422 -0.45043945 C29.09580951 -0.5290314 36.18812412 -0.27571252 43 5 C46.74419731 9.35777154 46.50663831 13.58967826 46.34375 19.12109375 C45.86915713 23.09580904 44.79164263 25.13677679 42 28 C36.66987924 31.62905376 33.03851924 32.57114678 26.66015625 32.390625 C25.89319931 32.38496521 25.12624237 32.37930542 24.33604431 32.37347412 C21.91086686 32.35126494 19.48722306 32.30110262 17.0625 32.25 C15.40822462 32.2299148 13.75392584 32.21166758 12.09960938 32.1953125 C8.06535482 32.15486885 4.0343729 32.07656164 0 32 C0 21.44 0 10.88 0 0 Z " fill="#251D52" transform="translate(896,137)"/>
<path d="M0 0 C34.32 0 68.64 0 104 0 C109 9 109 9 109 11 C71.71 11 34.42 11 -4 11 C-3 7 -3 7 0 0 Z " fill="#252055" transform="translate(175,240)"/>
<path d="M0 0 C15.18 0 30.36 0 46 0 C41.19771371 8.23249079 36.37089449 16.27634042 31.1875 24.25 C30.52041016 25.29285156 29.85332031 26.33570313 29.16601562 27.41015625 C28.52728516 28.39371094 27.88855469 29.37726563 27.23046875 30.390625 C26.65707764 31.27782227 26.08368652 32.16501953 25.49291992 33.07910156 C25.00025635 33.71299805 24.50759277 34.34689453 24 35 C23.34 35 22.68 35 22 35 C20.4526523 32.7375434 19.02738268 30.47589239 17.625 28.125 C13.19163071 20.8432699 8.54051943 13.73659476 3.76025391 6.67822266 C3.26960449 5.95038574 2.77895508 5.22254883 2.2734375 4.47265625 C1.83435059 3.82562744 1.39526367 3.17859863 0.94287109 2.51196289 C0 1 0 1 0 0 Z " fill="#A61F52" transform="translate(731,215)"/>
<path d="M0 0 C0 1.65 0 3.3 0 5 C-3.07956288 6.65296119 -6.16426079 8.29610171 -9.25 9.9375 C-10.12269531 10.40607422 -10.99539062 10.87464844 -11.89453125 11.35742188 C-12.73886719 11.80537109 -13.58320313 12.25332031 -14.453125 12.71484375 C-15.22817383 13.12855225 -16.00322266 13.54226074 -16.80175781 13.96850586 C-18.8706075 14.9392844 -20.7690269 15.53558429 -23 16 C-23 16.66 -23 17.32 -23 18 C-22.35546875 18.25136719 -21.7109375 18.50273437 -21.046875 18.76171875 C-17.08025284 20.37379468 -13.15774702 22.06291006 -9.25 23.8125 C-8.47011719 24.14314453 -7.69023437 24.47378906 -6.88671875 24.81445312 C-1.27903112 27.35497943 -1.27903112 27.35497943 0.140625 30.63671875 C0 33 0 33 -2 35 C-6.62637369 34.68933607 -10.51959626 32.41156053 -14.5625 30.3125 C-15.98142841 29.58266722 -17.40070306 28.85350723 -18.8203125 28.125 C-19.52188477 27.7640625 -20.22345703 27.403125 -20.94628906 27.03125 C-22.84045985 26.08011146 -24.74812744 25.1846126 -26.6796875 24.3125 C-27.75476563 23.8175 -28.82984375 23.3225 -29.9375 22.8125 C-30.89527344 22.38582031 -31.85304687 21.95914063 -32.83984375 21.51953125 C-35 20 -35 20 -35.81640625 17.32421875 C-35.87699219 16.55722656 -35.93757812 15.79023438 -36 15 C-27.96435779 10.10094675 -19.71785411 5.5583078 -11 2 C-9.96875 1.4225 -8.9375 0.845 -7.875 0.25 C-4.65952561 -1.14803235 -3.28100538 -1.06150174 0 0 Z " fill="#1AC3E2" transform="translate(209,135)"/>
<path d="M0 0 C6.19975843 0.52781358 11.7905315 4.05978925 17.28515625 6.78222656 C19.24982695 7.74991477 21.22581313 8.69128217 23.203125 9.6328125 C24.4539064 10.24841489 25.70393455 10.86555061 26.953125 11.484375 C28.08911133 12.03834961 29.22509766 12.59232422 30.39550781 13.16308594 C33 15 33 15 33.87792969 17.71972656 C33.91821289 18.4722168 33.95849609 19.22470703 34 20 C29.87389876 22.57481511 25.61011886 24.73567737 21.25 26.875 C15.9822495 29.46370601 10.85062858 32.12577038 5.89453125 35.28515625 C3.32633417 36.25418731 1.59877276 35.71365262 -1 35 C-1.33 33.68 -1.66 32.36 -2 31 C2.08320078 27.43822958 6.36033488 25.10897662 11.1875 22.75 C11.91130859 22.38648438 12.63511719 22.02296875 13.38085938 21.6484375 C18.7324953 19 18.7324953 19 21 19 C21 18.34 21 17.68 21 17 C20.35546875 16.74863281 19.7109375 16.49726563 19.046875 16.23828125 C15.08025284 14.62620532 11.15774702 12.93708994 7.25 11.1875 C6.47011719 10.85685547 5.69023437 10.52621094 4.88671875 10.18554688 C-0.72096888 7.64502057 -0.72096888 7.64502057 -2.140625 4.36328125 C-2 2 -2 2 0 0 Z " fill="#1AC5E4" transform="translate(247,134)"/>
<path d="M0 0 C1.12913818 0.01111816 2.25827637 0.02223633 3.42163086 0.03369141 C12.55867244 0.51066365 12.55867244 0.51066365 15.7578125 3.94921875 C17.87431312 7.61988615 19.5625 11.00943362 19.5625 15.3125 C6.6925 15.3125 -6.1775 15.3125 -19.4375 15.3125 C-17.03808408 3.31542038 -12.06023526 -0.31601919 0 0 Z " fill="#251E53" transform="translate(227.4375,202.6875)"/>
<path d="M0 0 C1.67542976 0.28604898 3.34385343 0.61781233 5 1 C6.50407833 5.69694636 5.35418343 8.24502053 3.3125 12.625 C1.36474701 16.91106666 -0.49920939 21.18060354 -2.0625 25.625 C-3.79302052 30.51497708 -5.73959952 35.28668668 -7.78125 40.0546875 C-8.58491635 41.99688118 -9.33665109 43.96149592 -10.03125 45.9453125 C-10.3509375 46.85023438 -10.670625 47.75515625 -11 48.6875 C-11.4021875 49.89986328 -11.4021875 49.89986328 -11.8125 51.13671875 C-13 53 -13 53 -15.5625 53.83203125 C-16.366875 53.88746094 -17.17125 53.94289062 -18 54 C-18.33 53.67 -18.66 53.34 -19 53 C-18.65950222 46.08108504 -16.97642678 40.76496278 -14.125 34.5 C-11.72729577 29.11614398 -9.52503899 23.78641876 -7.71923828 18.17382812 C-6.57849682 14.72604741 -5.23389655 11.36651256 -3.875 8 C-3.61074219 7.33355469 -3.34648437 6.66710937 -3.07421875 5.98046875 C-1.12683355 1.12683355 -1.12683355 1.12683355 0 0 Z " fill="#1AC3E2" transform="translate(234,125)"/>
</svg>
